<svg width="31" height="32" viewBox="0 0 31 32" fill="none" xmlns="http://www.w3.org/2000/svg">
<path d="M17 1.54839C17 1.13773 16.842 0.743891 16.5607 0.453512C16.2794 0.163133 15.8978 0 15.5 0C15.1022 0 14.7206 0.163133 14.4393 0.453512C14.158 0.743891 14 1.13773 14 1.54839V12.2632L8.782 6.87484C8.64356 6.72702 8.47799 6.60914 8.29495 6.52808C8.11191 6.44702 7.91506 6.40441 7.71589 6.40272C7.51672 6.40103 7.31922 6.4403 7.13491 6.51825C6.9506 6.59619 6.78318 6.71124 6.64241 6.85669C6.50163 7.00214 6.39033 7.17508 6.315 7.36541C6.23966 7.55573 6.2018 7.75964 6.20363 7.96523C6.20545 8.17082 6.24692 8.37398 6.32562 8.56285C6.40432 8.75172 6.51867 8.92253 6.662 9.06529L11.878 14.4516H1.5C1.10218 14.4516 0.720644 14.6147 0.43934 14.9051C0.158035 15.1955 0 15.5893 0 16C0 16.4107 0.158035 16.8045 0.43934 17.0949C0.720644 17.3853 1.10218 17.5484 1.5 17.5484H11.88L6.66 22.9347C6.5168 23.0776 6.40261 23.2485 6.32408 23.4375C6.24556 23.6264 6.20427 23.8296 6.20263 24.0352C6.201 24.2408 6.23904 24.4447 6.31455 24.6349C6.39006 24.8252 6.50152 24.998 6.64242 25.1433C6.78333 25.2886 6.95086 25.4035 7.13524 25.4813C7.31962 25.5591 7.51715 25.5981 7.71632 25.5963C7.91549 25.5944 8.1123 25.5516 8.29527 25.4703C8.47823 25.3891 8.6437 25.271 8.782 25.1231L14 19.7388V30.4516C14 30.8623 14.158 31.2561 14.4393 31.5465C14.7206 31.8369 15.1022 32 15.5 32C15.8978 32 16.2794 31.8369 16.5607 31.5465C16.842 31.2561 17 30.8623 17 30.4516V19.7368L22.218 25.1252C22.3564 25.273 22.522 25.3909 22.7051 25.4719C22.8881 25.553 23.0849 25.5956 23.2841 25.5973C23.4833 25.599 23.6808 25.5597 23.8651 25.4818C24.0494 25.4038 24.2168 25.2888 24.3576 25.1433C24.4984 24.9979 24.6097 24.8249 24.685 24.6346C24.7603 24.4443 24.7982 24.2404 24.7964 24.0348C24.7945 23.8292 24.7531 23.626 24.6744 23.4371C24.5957 23.2483 24.4813 23.0775 24.338 22.9347L19.122 17.5484H29.5C29.8978 17.5484 30.2794 17.3853 30.5607 17.0949C30.842 16.8045 31 16.4107 31 16C31 15.5893 30.842 15.1955 30.5607 14.9051C30.2794 14.6147 29.8978 14.4516 29.5 14.4516H19.12L24.34 9.06529C24.6131 8.77313 24.7641 8.38193 24.7605 7.97595C24.7569 7.56996 24.599 7.18168 24.3207 6.89473C24.0425 6.60778 23.6662 6.44513 23.2729 6.44179C22.8796 6.43846 22.5008 6.59471 22.218 6.8769L17 12.2612V1.54839Z" fill="white"/>
</svg>
