<svg width="23" height="29" viewBox="0 0 23 29" fill="none" xmlns="http://www.w3.org/2000/svg">
<path d="M2.04722 28.2597C1.24439 28.2597 0.561982 28.2062 0 28.0991V24.0849C0.428177 24.192 0.909876 24.2455 1.4451 24.2455C2.32821 24.2455 2.98386 24.0314 3.41203 23.6033C3.84021 23.1483 4.0543 22.4659 4.0543 21.556V0H8.46987V21.4356C8.46987 23.7371 7.93465 25.4498 6.86421 26.5737C5.82053 27.6977 4.21487 28.2597 2.04722 28.2597Z" fill="#121212"/>
<path d="M9.03185 0H15.6954C17.97 0 19.6292 0.535221 20.6729 1.60566C21.7166 2.64934 22.2384 4.26839 22.2384 6.46279V7.58676C22.2384 9.03186 21.9976 10.2093 21.5159 11.1192C21.0609 12.0291 20.3518 12.6847 19.3884 13.0862V13.1664C21.5828 13.9157 22.68 15.8693 22.68 19.0271V21.4356C22.68 23.6032 22.1046 25.2624 20.9539 26.4132C19.8299 27.5371 18.1708 28.0991 15.9763 28.0991H9.03185V0ZM15.1735 11.4404C16.0566 11.4404 16.7123 11.2129 17.1405 10.7579C17.5954 10.303 17.8229 9.54032 17.8229 8.46987V6.90435C17.8229 5.88743 17.6355 5.1515 17.2609 4.69657C16.913 4.24163 16.351 4.01416 15.5749 4.01416H13.4474V11.4404H15.1735ZM15.9763 24.0849C16.7524 24.0849 17.3278 23.8842 17.7024 23.4828C18.0771 23.0546 18.2644 22.3321 18.2644 21.3152V18.8665C18.2644 17.582 18.0369 16.6989 17.582 16.2172C17.1538 15.7087 16.4313 15.4545 15.4144 15.4545H13.4474V24.0849H15.9763Z" fill="#121212"/>
</svg>
